<?xml version="1.0" standalone="no"?>
<!DOCTYPE svg PUBLIC "-//W3C//DTD SVG 20010904//EN"
 "http://www.w3.org/TR/2001/REC-SVG-20010904/DTD/svg10.dtd">
<svg version="1.0" xmlns="http://www.w3.org/2000/svg"
 width="987.000000pt" height="987.000000pt" viewBox="0 0 987.000000 987.000000"
 preserveAspectRatio="xMidYMid meet">
<metadata>
Created by potrace 1.14, written by Peter Selinger 2001-2017
</metadata>
<g transform="translate(0.000000,987.000000) scale(0.100000,-0.100000)"
fill="#000000" stroke="none">
<path d="M4975 9864 c-663 -68 -1269 -359 -2130 -1022 -403 -310 -717 -610
-1033 -987 -566 -674 -1013 -1494 -1322 -2426 -304 -916 -470 -1961 -470
-2965 0 -275 11 -447 41 -659 136 -956 603 -1545 1379 -1740 192 -48 306 -60
585 -60 277 1 377 11 620 61 1069 223 2353 1006 3735 2278 l104 96 71 0 c154
0 295 60 395 166 65 70 121 175 139 262 38 185 -20 382 -151 508 -81 78 -98
94 -100 93 -2 0 -28 11 -58 25 -137 63 -300 73 -425 26 -178 -67 -300 -200
-345 -376 -24 -93 -25 -172 -4 -265 14 -62 14 -72 1 -82 -77 -63 -551 -414
-652 -484 -780 -542 -1399 -842 -1923 -934 -165 -29 -409 -31 -556 -5 -435 78
-740 335 -926 782 -79 189 -134 414 -170 688 -23 173 -47 674 -36 756 l7 55
106 60 c201 113 665 427 1217 823 734 526 1948 1433 2151 1607 204 175 528
501 659 665 352 439 548 879 617 1380 21 147 18 502 -5 624 -102 554 -442 912
-978 1027 -72 16 -140 21 -298 24 -113 1 -223 1 -245 -1z m-721 -1044 c340
-87 535 -435 536 -955 0 -789 -404 -1480 -1304 -2230 -251 -208 -482 -379
-1141 -840 -187 -131 -393 -278 -457 -327 -70 -51 -118 -82 -118 -73 0 8 9 85
20 172 84 656 296 1487 560 2198 235 630 491 1126 768 1485 84 109 308 333
393 392 129 91 267 155 394 183 94 21 258 19 349 -5z"/>
<path d="M8963 5939 c-164 -27 -327 -148 -398 -294 -153 -315 23 -700 362
-791 74 -19 221 -19 297 1 214 56 373 251 393 480 24 285 -181 550 -464 600
-87 16 -115 16 -190 4z"/>
<path d="M7715 4744 c-11 -2 -40 -10 -65 -16 -75 -18 -178 -78 -238 -137 -102
-100 -150 -208 -159 -356 -19 -328 233 -595 562 -595 157 0 273 47 381 154
144 143 195 332 144 530 -25 100 -61 166 -131 241 -103 109 -242 174 -389 180
-47 2 -94 2 -105 -1z"/>
</g>
</svg>
