<?xml version="1.0" encoding="UTF-8" standalone="no"?>
<svg
   xmlns:dc="http://purl.org/dc/elements/1.1/"
   xmlns:cc="http://creativecommons.org/ns#"
   xmlns:rdf="http://www.w3.org/1999/02/22-rdf-syntax-ns#"
   xmlns:svg="http://www.w3.org/2000/svg"
   xmlns="http://www.w3.org/2000/svg"
   xmlns:sodipodi="http://sodipodi.sourceforge.net/DTD/sodipodi-0.dtd"
   xmlns:inkscape="http://www.inkscape.org/namespaces/inkscape"
   version="1.1"
   x="0px"
   y="0px"
   width="24px"
   height="24px"
   viewBox="0 0 24 24"
   id="svg6"
   sodipodi:docname="logo.svg"
   inkscape:version="0.92.4 (5da689c313, 2019-01-14)">
  <metadata
     id="metadata12">
    <rdf:RDF>
      <cc:Work
         rdf:about="">
        <dc:format>image/svg+xml</dc:format>
        <dc:type
           rdf:resource="http://purl.org/dc/dcmitype/StillImage" />
        <dc:title />
      </cc:Work>
    </rdf:RDF>
  </metadata>
  <defs
     id="defs10" />
  <sodipodi:namedview
     pagecolor="#ffffff"
     bordercolor="#666666"
     borderopacity="1"
     objecttolerance="10"
     gridtolerance="10"
     guidetolerance="10"
     inkscape:pageopacity="0"
     inkscape:pageshadow="2"
     inkscape:window-width="1280"
     inkscape:window-height="720"
     id="namedview8"
     showgrid="false"
     inkscape:zoom="21.367487"
     inkscape:cx="11.172122"
     inkscape:cy="12.707271"
     inkscape:window-x="0"
     inkscape:window-y="25"
     inkscape:window-maximized="1"
     inkscape:current-layer="svg6" />
  <style
     type="text/css"
     id="style2">
	.st0{fill:#515151;}
</style>
  <g
     id="flowRoot10"
     style="font-style:normal;font-weight:normal;font-size:40px;line-height:1.25;font-family:sans-serif;letter-spacing:0px;word-spacing:0px;fill:#4d4d4d;fill-opacity:1;stroke:none"
     transform="matrix(0.22462136,-0.25402054,0.25402054,0.22462136,-49.974904,-26.173545)"
     aria-label="...">
    <path
       inkscape:connector-curvature="0"
       id="path16"
       style="font-style:normal;font-variant:normal;font-weight:normal;font-stretch:normal;font-size:40px;font-family:'GFS Gazis';-inkscape-font-specification:'GFS Gazis, Normal';font-variant-ligatures:normal;font-variant-caps:normal;font-variant-numeric:normal;font-feature-settings:normal;text-align:start;writing-mode:lr-tb;text-anchor:start;fill:#4d4d4d"
       d="m 42.742578,230.35531 c 0,-1.24 -0.96,-2.24 -2.2,-2.24 -1.16,0 -2.16,1 -2.16,2.24 0,1.16 1,2.2 2.16,2.2 1.24,0 2.2,-1.04 2.2,-2.2 z" />
    <path
       inkscape:connector-curvature="0"
       id="path18"
       style="font-style:normal;font-variant:normal;font-weight:normal;font-stretch:normal;font-size:40px;font-family:'GFS Gazis';-inkscape-font-specification:'GFS Gazis, Normal';font-variant-ligatures:normal;font-variant-caps:normal;font-variant-numeric:normal;font-feature-settings:normal;text-align:start;writing-mode:lr-tb;text-anchor:start;fill:#4d4d4d"
       d="m 49.617578,230.35531 c 0,-1.24 -0.96,-2.24 -2.2,-2.24 -1.16,0 -2.16,1 -2.16,2.24 0,1.16 1,2.2 2.16,2.2 1.24,0 2.2,-1.04 2.2,-2.2 z" />
    <path
       inkscape:connector-curvature="0"
       id="path20"
       style="font-style:normal;font-variant:normal;font-weight:normal;font-stretch:normal;font-size:40px;font-family:'GFS Gazis';-inkscape-font-specification:'GFS Gazis, Normal';font-variant-ligatures:normal;font-variant-caps:normal;font-variant-numeric:normal;font-feature-settings:normal;text-align:start;writing-mode:lr-tb;text-anchor:start;fill:#4d4d4d"
       d="m 56.492578,230.35531 c 0,-1.24 -0.96,-2.24 -2.2,-2.24 -1.16,0 -2.16,1 -2.16,2.24 0,1.16 1,2.2 2.16,2.2 1.24,0 2.2,-1.04 2.2,-2.2 z" />
  </g>
  <g
     id="flowRoot22"
     style="font-style:normal;font-weight:normal;font-size:40px;line-height:1.25;font-family:sans-serif;letter-spacing:0px;word-spacing:0px;fill:#4d4d4d;fill-opacity:1;stroke:none;stroke-width:0.07534149;stroke-miterlimit:4;stroke-dasharray:none"
     transform="matrix(1.3272899,0,0,1.3272899,-34.926904,-294.54996)"
     aria-label="e">
    <path
       inkscape:connector-curvature="0"
       id="path23"
       style="font-style:normal;font-variant:normal;font-weight:500;font-stretch:normal;font-size:40px;font-family:'TeX Gyre Chorus';-inkscape-font-specification:'TeX Gyre Chorus, Medium';font-variant-ligatures:normal;font-variant-caps:normal;font-variant-numeric:normal;font-feature-settings:normal;text-align:start;writing-mode:lr-tb;text-anchor:start;fill:#4d4d4d;stroke-width:0.07534149;stroke-miterlimit:4;stroke-dasharray:none"
       d="m 39.225014,234.35791 c -0.112726,-0.0582 -0.456643,-0.37671 -0.478102,-0.60316 -1.48,1.2 -4.101365,3.3583 -6.141365,3.3583 -2.24,0 -2.44,-2.4 -2.4,-3.96 0.92,-0.44 4.84,-3.4 5.64,-4 1.48,-1.2 2.56,-2.48 2.56,-4.36 0,-1.32 -0.8,-2.32 -2.28,-2.32 -1.44,0 -2.68,0.72 -4.12,1.84 -3.52,2.72 -4.76,7.2 -4.76,10.96 0,2.44 1,4.16 3.44,4.16 3.08,0 6.899467,-3.43514 8.539467,-5.07514 z m -3.779467,-8.44486 c 0,2.88 -3.28,4.52 -5.2,6 0.16,-2 1.68,-7.68 3.96,-7.68 0.88,0 1.24,0.8 1.24,1.68 z"
       sodipodi:nodetypes="ccsccsscsscscss" />
  </g>
</svg>
