<?xml version="1.0" standalone="no"?>
<!DOCTYPE svg PUBLIC "-//W3C//DTD SVG 20010904//EN"
 "http://www.w3.org/TR/2001/REC-SVG-20010904/DTD/svg10.dtd">
<svg version="1.0" xmlns="http://www.w3.org/2000/svg"
 width="700.000000pt" height="700.000000pt" viewBox="0 0 700.000000 700.000000"
 preserveAspectRatio="xMidYMid meet">
<metadata>
Created by potrace 1.14, written by Peter Selinger 2001-2017
</metadata>
<g transform="translate(0.000000,700.000000) scale(0.100000,-0.100000)"
fill="#000000" stroke="none">
<path d="M3674 6779 c-350 -25 -705 -168 -1128 -457 -507 -344 -884 -704
-1198 -1143 -606 -845 -952 -1968 -984 -3194 -18 -671 112 -1128 404 -1423
354 -357 941 -439 1592 -222 736 245 1568 816 2530 1737 l104 100 -71 70 c-43
44 -77 89 -89 117 -10 25 -21 46 -24 46 -3 0 -93 -70 -200 -156 -553 -444
-943 -706 -1325 -894 -343 -169 -597 -240 -855 -240 -499 0 -802 320 -895 945
-18 121 -35 450 -28 535 l5 55 81 45 c228 127 931 626 1822 1294 341 255 418
320 609 506 235 230 376 417 486 645 195 402 225 879 76 1186 -126 257 -372
423 -661 445 -38 2 -86 6 -105 8 -19 1 -85 -1 -146 -5z m-472 -700 c160 -54
266 -193 310 -408 17 -82 19 -121 15 -266 -3 -102 -12 -200 -22 -245 -89 -402
-356 -788 -815 -1172 -133 -112 -429 -332 -735 -547 -143 -100 -297 -210 -343
-243 -45 -33 -84 -59 -87 -57 -13 14 47 380 106 641 199 888 543 1675 891
2043 128 136 263 225 391 260 81 21 216 19 289 -6z"/>
<path d="M5955 3766 c-16 -8 -44 -29 -62 -47 -86 -91 -84 -211 6 -300 89 -90
216 -91 305 -2 40 39 56 82 56 148 0 85 -44 156 -122 196 -44 23 -138 25 -183
5z"/>
<path d="M5545 3269 c-61 -15 -111 -55 -140 -112 -42 -86 -29 -171 37 -243
133 -144 368 -54 368 141 0 141 -129 245 -265 214z"/>
<path d="M5091 2760 c-49 -12 -111 -59 -134 -103 -44 -86 -31 -182 35 -253
133 -144 368 -54 368 142 0 104 -68 190 -170 213 -51 12 -53 12 -99 1z"/>
</g>
</svg>
